HIERARCHY
ROOT mixamorig:Hips
{
	OFFSET 0.000000 104.274902 0.000000
	CHANNELS 6 Xposition Yposition Zposition Xrotation Yrotation Zrotation
	JOINT mixamorig:Spine
	{
		OFFSET 0.000000 10.181549 0.131524
		CHANNELS 6 Xposition Yposition Zposition Xrotation Yrotation Zrotation
		JOINT mixamorig:Spine1
		{
			OFFSET 0.000000 9.893990 -1.470706
			CHANNELS 3 Xrotation Yrotation Zrotation
			JOINT mixamorig:Spine2
			{
				OFFSET 0.000000 9.220787 -1.370637
				CHANNELS 3 Xrotation Yrotation Zrotation
				JOINT mixamorig:Neck
				{
					OFFSET 0.000000 16.740372 -2.049022
					CHANNELS 6 Xposition Yposition Zposition Xrotation Yrotation Zrotation
					JOINT mixamorig:Head
					{
						OFFSET 0.000000 9.617859 1.684976
						CHANNELS 6 Xposition Yposition Zposition Xrotation Yrotation Zrotation
						JOINT mixamorig:HeadTop_End
						{
							OFFSET 0.000000 22.037384 7.501072
							CHANNELS 6 Xposition Yposition Zposition Xrotation Yrotation Zrotation
							End Site
							{
								OFFSET 0.000000 23.106567 -2.828246
							}
						}
					}
				}
				JOINT mixamorig:RightShoulder
				{
					OFFSET -4.570000 11.014877 -2.160840
					CHANNELS 6 Xposition Yposition Zposition Xrotation Yrotation Zrotation
					JOINT mixamorig:RightArm
					{
						OFFSET -10.592867 -0.524796 -2.232105
						CHANNELS 3 Xrotation Yrotation Zrotation
						JOINT mixamorig:RightForeArm
						{
							OFFSET -27.841497 0.000000 -0.000002
							CHANNELS 3 Xrotation Yrotation Zrotation
							JOINT mixamorig:RightHand
							{
								OFFSET -28.328812 0.000000 -0.000001
								CHANNELS 3 Xrotation Yrotation Zrotation
								JOINT mixamorig:RightHandThumb1
								{
									OFFSET -2.464798 -1.573990 2.681911
									CHANNELS 6 Xposition Yposition Zposition Xrotation Yrotation Zrotation
									JOINT mixamorig:RightHandThumb2
									{
										OFFSET -3.244781 -1.873383 1.873376
										CHANNELS 3 Xrotation Yrotation Zrotation
										JOINT mixamorig:RightHandThumb3
										{
											OFFSET -2.646263 -1.527817 1.527818
											CHANNELS 6 Xposition Yposition Zposition Xrotation Yrotation Zrotation
											JOINT mixamorig:RightHandThumb4
											{
												OFFSET -1.994591 -1.151581 1.151575
												CHANNELS 6 Xposition Yposition Zposition Xrotation Yrotation Zrotation
												End Site
												{
													OFFSET -1.860176 -1.142715 1.365483
												}
											}
										}
									}
								}
								JOINT mixamorig:RightHandIndex1
								{
									OFFSET -9.108299 -0.517883 2.259803
									CHANNELS 6 Xposition Yposition Zposition Xrotation Yrotation Zrotation
									JOINT mixamorig:RightHandIndex2
									{
										OFFSET -3.699997 0.000000 0.000000
										CHANNELS 3 Xrotation Yrotation Zrotation
										JOINT mixamorig:RightHandIndex3
										{
											OFFSET -2.850006 0.000000 0.000000
											CHANNELS 3 Xrotation Yrotation Zrotation
											JOINT mixamorig:RightHandIndex4
											{
												OFFSET -2.772194 0.000000 0.000000
												CHANNELS 3 Xrotation Yrotation Zrotation
												End Site
												{
													OFFSET -2.772202 0.000000 -0.000484
												}
											}
										}
									}
								}
								JOINT mixamorig:RightHandMiddle1
								{
									OFFSET -9.532501 0.000000 -0.000000
									CHANNELS 6 Xposition Yposition Zposition Xrotation Yrotation Zrotation
									JOINT mixamorig:RightHandMiddle2
									{
										OFFSET -3.699997 0.000000 0.000000
										CHANNELS 3 Xrotation Yrotation Zrotation
										JOINT mixamorig:RightHandMiddle3
										{
											OFFSET -2.949997 0.000000 0.000000
											CHANNELS 3 Xrotation Yrotation Zrotation
											JOINT mixamorig:RightHandMiddle4
											{
												OFFSET -2.946594 0.000000 0.000000
												CHANNELS 3 Xrotation Yrotation Zrotation
												End Site
												{
													OFFSET -2.946602 0.000000 -0.000982
												}
											}
										}
									}
								}
								JOINT mixamorig:RightHandRing1
								{
									OFFSET -9.103600 -0.043106 -1.865100
									CHANNELS 6 Xposition Yposition Zposition Xrotation Yrotation Zrotation
									JOINT mixamorig:RightHandRing2
									{
										OFFSET -3.379303 0.000000 0.000000
										CHANNELS 3 Xrotation Yrotation Zrotation
										JOINT mixamorig:RightHandRing3
										{
											OFFSET -2.889694 0.000000 0.000000
											CHANNELS 3 Xrotation Yrotation Zrotation
											JOINT mixamorig:RightHandRing4
											{
												OFFSET -2.638802 0.000000 0.000000
												CHANNELS 3 Xrotation Yrotation Zrotation
												End Site
												{
													OFFSET -2.638802 0.000000 0.004218
												}
											}
										}
									}
								}
								JOINT mixamorig:RightHandPinky1
								{
									OFFSET -8.076698 -0.486725 -3.806299
									CHANNELS 6 Xposition Yposition Zposition Xrotation Yrotation Zrotation
									JOINT mixamorig:RightHandPinky2
									{
										OFFSET -3.600006 0.000000 0.000000
										CHANNELS 3 Xrotation Yrotation Zrotation
										JOINT mixamorig:RightHandPinky3
										{
											OFFSET -2.099998 0.000000 0.000000
											CHANNELS 3 Xrotation Yrotation Zrotation
											JOINT mixamorig:RightHandPinky4
											{
												OFFSET -2.115791 0.000000 0.000000
												CHANNELS 3 Xrotation Yrotation Zrotation
												End Site
												{
													OFFSET -2.115799 0.000000 0.000174
												}
											}
										}
									}
								}
							}
						}
					}
				}
				JOINT mixamorig:LeftShoulder
				{
					OFFSET 4.570400 11.014679 -2.160816
					CHANNELS 6 Xposition Yposition Zposition Xrotation Yrotation Zrotation
					JOINT mixamorig:LeftArm
					{
						OFFSET 10.592373 -0.524597 -2.232116
						CHANNELS 3 Xrotation Yrotation Zrotation
						JOINT mixamorig:LeftForeArm
						{
							OFFSET 27.841488 0.000000 0.000001
							CHANNELS 3 Xrotation Yrotation Zrotation
							JOINT mixamorig:LeftHand
							{
								OFFSET 28.328808 0.000000 -0.000000
								CHANNELS 3 Xrotation Yrotation Zrotation
								JOINT mixamorig:LeftHandThumb1
								{
									OFFSET 2.466103 -1.576202 2.681698
									CHANNELS 6 Xposition Yposition Zposition Xrotation Yrotation Zrotation
									JOINT mixamorig:LeftHandThumb2
									{
										OFFSET 3.243317 -1.872528 1.872530
										CHANNELS 3 Xrotation Yrotation Zrotation
										JOINT mixamorig:LeftHandThumb3
										{
											OFFSET 2.647881 -1.528763 1.528754
											CHANNELS 6 Xposition Yposition Zposition Xrotation Yrotation Zrotation
											JOINT mixamorig:LeftHandThumb4
											{
												OFFSET 1.998924 -1.154083 1.154080
												CHANNELS 6 Xposition Yposition Zposition Xrotation Yrotation Zrotation
												End Site
												{
													OFFSET 1.884041 -1.149155 1.337651
												}
											}
										}
									}
								}
								JOINT mixamorig:LeftHandIndex1
								{
									OFFSET 9.109299 -0.518005 2.259900
									CHANNELS 6 Xposition Yposition Zposition Xrotation Yrotation Zrotation
									JOINT mixamorig:LeftHandIndex2
									{
										OFFSET 3.699997 0.000000 0.000000
										CHANNELS 3 Xrotation Yrotation Zrotation
										JOINT mixamorig:LeftHandIndex3
										{
											OFFSET 2.850006 0.000000 0.000000
											CHANNELS 3 Xrotation Yrotation Zrotation
											JOINT mixamorig:LeftHandIndex4
											{
												OFFSET 2.774895 0.000000 0.000000
												CHANNELS 3 Xrotation Yrotation Zrotation
												End Site
												{
													OFFSET 2.774902 0.000000 -0.000072
												}
											}
										}
									}
								}
								JOINT mixamorig:LeftHandMiddle1
								{
									OFFSET 9.533401 0.000000 0.000000
									CHANNELS 6 Xposition Yposition Zposition Xrotation Yrotation Zrotation
									JOINT mixamorig:LeftHandMiddle2
									{
										OFFSET 3.699997 0.000000 0.000000
										CHANNELS 3 Xrotation Yrotation Zrotation
										JOINT mixamorig:LeftHandMiddle3
										{
											OFFSET 2.949997 0.000000 0.000000
											CHANNELS 3 Xrotation Yrotation Zrotation
											JOINT mixamorig:LeftHandMiddle4
											{
												OFFSET 2.952896 0.000000 0.000000
												CHANNELS 3 Xrotation Yrotation Zrotation
												End Site
												{
													OFFSET 2.952904 0.000000 0.000165
												}
											}
										}
									}
								}
								JOINT mixamorig:LeftHandRing1
								{
									OFFSET 9.104500 -0.042999 -1.865101
									CHANNELS 6 Xposition Yposition Zposition Xrotation Yrotation Zrotation
									JOINT mixamorig:LeftHandRing2
									{
										OFFSET 3.149994 0.000000 0.000000
										CHANNELS 3 Xrotation Yrotation Zrotation
										JOINT mixamorig:LeftHandRing3
										{
											OFFSET 2.950005 0.000000 0.000000
											CHANNELS 3 Xrotation Yrotation Zrotation
											JOINT mixamorig:LeftHandRing4
											{
												OFFSET 2.644302 0.000000 0.000000
												CHANNELS 3 Xrotation Yrotation Zrotation
												End Site
												{
													OFFSET 2.644302 0.000000 0.000083
												}
											}
										}
									}
								}
								JOINT mixamorig:LeftHandPinky1
								{
									OFFSET 8.077805 -0.486893 -3.806302
									CHANNELS 6 Xposition Yposition Zposition Xrotation Yrotation Zrotation
									JOINT mixamorig:LeftHandPinky2
									{
										OFFSET 3.600006 0.000000 0.000000
										CHANNELS 3 Xrotation Yrotation Zrotation
										JOINT mixamorig:LeftHandPinky3
										{
											OFFSET 2.099998 0.000000 0.000000
											CHANNELS 3 Xrotation Yrotation Zrotation
											JOINT mixamorig:LeftHandPinky4
											{
												OFFSET 2.125496 0.000000 0.000000
												CHANNELS 3 Xrotation Yrotation Zrotation
												End Site
												{
													OFFSET 2.125504 0.000000 -0.001254
												}
											}
										}
									}
								}
							}
						}
					}
				}
			}
		}
	}
	JOINT mixamorig:RightUpLeg
	{
		OFFSET -8.207800 -6.751701 -1.599544
		CHANNELS 6 Xposition Yposition Zposition Xrotation Yrotation Zrotation
		JOINT mixamorig:RightLeg
		{
			OFFSET 0.000004 -44.370152 0.345934
			CHANNELS 3 Xrotation Yrotation Zrotation
			JOINT mixamorig:RightFoot
			{
				OFFSET 0.000004 -44.423664 -3.043535
				CHANNELS 3 Xrotation Yrotation Zrotation
				JOINT mixamorig:RightToeBase
				{
					OFFSET 0.000001 -8.728691 10.710592
					CHANNELS 3 Xrotation Yrotation Zrotation
					JOINT mixamorig:RightToe_End
					{
						OFFSET 0.000000 -0.000665 9.278101
						CHANNELS 3 Xrotation Yrotation Zrotation
						End Site
						{
							OFFSET 0.000000 -0.000665 9.278103
						}
					}
				}
			}
		}
	}
	JOINT mixamorig:LeftUpLeg
	{
		OFFSET 8.207800 -6.751701 -1.599544
		CHANNELS 6 Xposition Yposition Zposition Xrotation Yrotation Zrotation
		JOINT mixamorig:LeftLeg
		{
			OFFSET 0.000004 -44.370037 0.346940
			CHANNELS 3 Xrotation Yrotation Zrotation
			JOINT mixamorig:LeftFoot
			{
				OFFSET 0.000004 -44.423611 -3.044388
				CHANNELS 3 Xrotation Yrotation Zrotation
				JOINT mixamorig:LeftToeBase
				{
					OFFSET 0.000001 -8.728690 10.710592
					CHANNELS 3 Xrotation Yrotation Zrotation
					JOINT mixamorig:LeftToe_End
					{
						OFFSET 0.000000 -0.000680 9.278101
						CHANNELS 3 Xrotation Yrotation Zrotation
						End Site
						{
							OFFSET 0.000000 -0.000680 9.278101
						}
					}
				}
			}
		}
	}
}
MOTION
Frames: 4
Frame Time: 0.033333
0.412370 80.542595 16.365232 13.209606 2.713579 3.599835 0.000001 10.181547 0.131520 5.426852 0.632221 -0.626731 10.294056 3.491355 1.302815 10.287831 3.478407 1.373134 -0.000001 16.740376 -2.049014 -17.182181 -1.638347 -0.061408 -0.000002 9.617858 1.684984 -38.379717 -4.928821 -13.680968 0.000000 22.037369 7.501085 0.000002 0.000000 -0.000000 -4.570002 11.014884 -2.160834 2.554799 1.369455 5.070548 -41.714216 27.579855 62.450421 -0.000009 34.846683 0.000038 18.296280 14.468825 -14.021164 -2.464797 -1.573974 2.681915 -19.157612 -13.375752 -13.001783 8.709582 -27.657982 21.509386 -2.646270 -1.527806 1.527824 -8.793710 -32.172711 -17.161467 -1.994583 -1.151584 1.151569 0.000002 0.000003 -0.000000 -9.108302 -0.517872 2.259800 2.029840 1.301303 23.999681 0.463665 -2.027595 25.759488 0.096691 -0.945069 11.683065 -0.000001 -0.000002 0.000000 -9.532493 0.000031 0.000001 0.125130 -3.434365 23.668287 1.076133 -2.979426 39.711239 0.077487 -0.846973 10.455806 0.000002 0.000004 0.000000 -9.103600 -0.043084 -1.865101 1.729014 -6.390256 30.557812 0.568874 -2.232356 28.589039 0.431448 -1.959443 24.832992 0.000003 0.000007 0.000001 -8.076716 -0.486700 -3.806301 -9.978202 -11.052420 30.214858 0.602885 -2.293645 29.450953 0.904347 -2.759776 36.280517 -0.000001 0.000000 -0.000004 4.570398 11.014688 -2.160815 1.607498 -9.255173 -1.494961 -21.324856 -21.883498 -78.319785 0.000026 -61.501229 0.000030 37.739169 3.378148 6.334130 2.466103 -1.576196 2.681697 4.150670 1.347097 17.428737 3.235984 23.527604 -22.621259 2.647882 -1.528745 1.528753 -5.613662 25.613314 7.780952 1.998914 -1.154075 1.154083 0.000000 0.000003 -0.000002 9.109300 -0.518009 2.259896 -0.205778 3.056628 -24.736739 0.379239 2.075476 -20.709781 0.000696 -0.089734 0.875703 0.000002 0.000000 0.000000 9.533393 -0.000002 -0.000005 1.205156 6.953359 -16.899613 0.336299 1.958208 -19.489549 0.028539 0.578295 -5.652372 0.000001 -0.000002 0.000000 9.104495 -0.043007 -1.865103 2.056732 9.374812 -17.858730 0.213109 1.567372 -15.486385 0.210216 1.556880 -15.379991 -0.000004 -0.000001 -0.000001 8.077801 -0.486888 -3.806304 2.010667 9.911510 -17.392443 0.158625 1.355507 -13.350212 0.000710 0.091519 -0.893079 -0.000001 -0.000001 -0.000001 -8.207800 -6.751713 -1.599541 -73.085777 0.550143 -14.722638 70.454965 -1.689153 2.404308 -10.416744 -0.455886 1.713098 -1.066015 0.000007 -0.000000 0.000000 0.000001 0.000000 8.207801 -6.751701 -1.599551 -70.537030 4.237192 5.363271 69.969721 -5.446561 -2.298455 -13.439091 -0.353698 -0.019555 2.112984 -0.000001 -0.000002 -0.000000 0.000000 0.000000 
0.128551 77.630211 14.108989 13.141970 2.781735 3.783217 0.000000 10.181551 0.131527 5.695508 0.535016 -0.693455 10.740274 3.591465 1.302625 10.735968 3.574678 1.370688 -0.000001 16.740351 -2.049015 -17.346606 -1.695493 0.025897 -0.000001 9.617867 1.684975 -38.714848 -5.192752 -13.329280 -0.000000 22.037369 7.501068 -0.000000 0.000000 -0.000000 -4.570001 11.014873 -2.160846 2.013545 1.898632 6.002882 -41.453904 29.988068 61.831701 -0.000011 32.896913 0.000040 19.805759 14.773469 -14.513437 -2.464809 -1.573981 2.681909 -19.933357 -13.301127 -12.178382 8.947735 -27.294129 21.530717 -2.646269 -1.527806 1.527800 -8.913922 -31.850473 -17.501400 -1.994564 -1.151586 1.151573 0.000002 0.000003 0.000001 -9.108294 -0.517869 2.259801 1.936466 1.357768 23.962211 0.463151 -2.026518 25.744689 0.099151 -0.956883 11.831331 0.000001 0.000001 -0.000000 -9.532516 0.000015 -0.000003 0.106049 -3.369440 23.073808 1.034954 -2.929214 38.912161 0.065298 -0.778007 9.595993 -0.000000 0.000000 0.000000 -9.103613 -0.043091 -1.865105 1.770560 -6.509762 29.885674 0.545206 -2.188466 27.976214 0.415117 -1.923796 24.351136 -0.000001 0.000002 0.000002 -8.076711 -0.486712 -3.806308 -9.808180 -11.204162 28.931746 0.543563 -2.185313 27.932574 0.827345 -2.651827 34.649843 0.000001 0.000004 0.000002 4.570400 11.014687 -2.160816 1.541942 -10.791231 -3.128359 -22.947113 -22.516581 -75.699922 -0.000015 -55.682277 -0.000010 42.978125 -3.261661 14.098135 2.466108 -1.576202 2.681696 4.911989 1.458199 18.467967 3.080880 22.485152 -23.101400 2.647896 -1.528772 1.528753 -5.525174 26.901023 6.914963 1.998913 -1.154068 1.154086 -0.000001 -0.000001 0.000002 9.109300 -0.518014 2.259902 -0.286598 2.561301 -21.338028 0.246146 1.682014 -16.651443 0.002643 -0.176101 1.718745 0.000001 -0.000000 0.000002 9.533407 -0.000003 0.000000 0.905370 6.693131 -12.737135 0.210800 1.558990 -15.401363 0.020682 0.492520 -4.811801 -0.000001 -0.000001 0.000003 9.104505 -0.043001 -1.865102 1.473286 9.150332 -12.668210 0.114750 1.155170 -11.348000 0.123333 1.197089 -11.765563 0.000001 -0.000000 0.000000 8.077807 -0.486888 -3.806302 1.543406 9.779332 -12.054772 0.076502 0.944770 -9.260283 0.000032 -0.019354 0.188738 0.000001 0.000000 0.000003 -8.207802 -6.751702 -1.599540 -77.509916 1.356056 -14.648282 74.231719 -1.627838 2.405126 -9.707750 -0.403991 1.171145 -1.069696 0.000001 0.000000 0.000000 0.000001 0.000000 8.207798 -6.751702 -1.599550 -74.980717 3.970751 5.677002 73.779512 -5.567388 -2.296964 -12.734749 -0.305245 -0.096997 2.120197 0.000001 0.000002 0.000000 0.000000 0.000000 
-0.136819 74.753693 11.921907 12.869452 2.867993 3.860524 -0.000000 10.181553 0.131522 5.938525 0.450621 -0.743682 11.133120 3.656654 1.285130 11.130487 3.636595 1.351078 0.000001 16.740406 -2.049016 -17.480968 -1.738522 0.104362 0.000004 9.617857 1.684987 -38.871563 -5.404363 -12.994040 -0.000001 22.037369 7.501075 -0.000000 0.000000 0.000000 -4.570000 11.014887 -2.160836 1.479832 2.396678 6.932117 -40.752955 32.147655 60.936673 -0.000015 31.635353 0.000044 21.464930 14.725840 -14.995214 -2.464799 -1.573995 2.681913 -20.684504 -13.199750 -11.328532 9.167937 -26.904846 21.526823 -2.646267 -1.527821 1.527804 -9.030953 -31.533426 -17.833566 -1.994586 -1.151589 1.151568 0.000003 0.000000 -0.000002 -9.108304 -0.517883 2.259800 1.843118 1.415997 23.889997 0.462620 -2.025441 25.730163 0.101599 -0.968492 11.976907 0.000000 -0.000002 0.000000 -9.532502 0.000013 0.000001 0.086625 -3.299835 22.439267 0.993766 -2.877496 38.098887 0.054665 -0.712203 8.777404 -0.000001 0.000003 -0.000001 -9.103608 -0.043097 -1.865103 1.800300 -6.621179 29.146466 0.520204 -2.140719 27.313771 0.397250 -1.883832 23.813215 0.000001 0.000001 0.000001 -8.076709 -0.486715 -3.806304 -9.627821 -11.338637 27.616430 0.498147 -2.097468 26.717111 0.750335 -2.536928 32.948740 0.000001 0.000003 -0.000000 4.570403 11.014697 -2.160808 1.402331 -12.273544 -4.662673 -25.012264 -24.524515 -72.849527 0.000017 -46.985145 0.000030 46.694329 -8.025898 26.769545 2.466113 -1.576204 2.681699 5.582440 1.577768 19.387094 2.938387 21.554335 -23.523484 2.647878 -1.528764 1.528751 -5.443567 28.037757 6.148994 1.998929 -1.154079 1.154084 -0.000000 0.000003 -0.000002 9.109292 -0.518007 2.259901 -0.327653 2.222195 -19.228304 0.173798 1.417926 -13.977326 0.002514 -0.171745 1.676206 0.000000 -0.000000 -0.000002 9.533401 -0.000005 0.000000 0.717864 6.534061 -9.972826 0.143551 1.290345 -12.697258 0.021104 0.497330 -4.858908 0.000001 0.000002 -0.000001 9.104501 -0.042998 -1.865101 1.075219 8.997938 -9.029365 0.066087 0.878559 -8.606093 0.080012 0.966047 -9.470909 -0.000002 -0.000001 0.000003 8.077815 -0.486899 -3.806301 1.116373 9.743641 -8.290218 0.038307 0.669624 -6.548852 0.000088 -0.032308 0.315304 -0.000001 -0.000002 0.000002 -8.207800 -6.751699 -1.599539 -81.566768 1.997776 -14.509721 77.579365 -1.630914 2.404929 -8.739648 -0.349519 0.619471 -1.073300 0.000000 -0.000000 0.000000 -0.000000 -0.000000 8.207798 -6.751709 -1.599548 -79.098788 3.661021 6.035621 77.197250 -5.778231 -2.295592 -11.766363 -0.261321 -0.132530 2.140517 -0.000000 0.000000 0.000000 -0.000000 0.000000 
-0.374770 71.842232 9.901795 12.046933 2.991630 3.679489 -0.000000 10.181547 0.131527 6.134808 0.390308 -0.755764 11.399217 3.614803 1.226336 11.397684 3.593089 1.291300 -0.000001 16.740372 -2.049024 -17.492343 -1.756672 0.200305 -0.000001 9.617855 1.684982 -38.510621 -5.492192 -12.639911 -0.000000 22.037354 7.501084 0.000001 0.000000 0.000000 -4.570004 11.014878 -2.160843 0.954444 2.868135 7.867012 -39.441095 33.996799 59.706775 -0.000008 31.305008 0.000038 23.310203 14.199377 -15.444227 -2.464803 -1.573980 2.681914 -21.408261 -13.077824 -10.459327 9.371020 -26.496078 21.499873 -2.646266 -1.527802 1.527814 -9.144435 -31.222926 -18.156767 -1.994582 -1.151582 1.151572 0.000003 0.000000 -0.000004 -9.108294 -0.517869 2.259804 1.750472 1.475636 23.787932 0.462145 -2.024424 25.715944 0.103996 -0.979810 12.119181 -0.000000 0.000003 0.000000 -9.532502 -0.000001 0.000003 0.067349 -3.226687 21.775065 0.953027 -2.824828 37.279623 0.045585 -0.650700 8.014161 0.000000 0.000000 0.000001 -9.103601 -0.043110 -1.865101 1.817953 -6.724043 28.341556 0.493881 -2.089003 26.600559 0.377939 -1.839500 23.219069 0.000000 0.000003 -0.000001 -8.076703 -0.486711 -3.806303 -9.438895 -11.455576 26.280575 0.453909 -2.007247 25.482114 0.674594 -2.416146 31.195871 -0.000002 0.000004 -0.000002 4.570398 11.014708 -2.160821 1.205802 -13.630614 -6.042311 -25.365637 -24.635908 -70.425602 -0.000018 -44.860887 -0.000017 48.872678 -11.244407 37.957619 2.466093 -1.576196 2.681702 6.121994 1.688760 20.128747 2.819914 20.797818 -23.864336 2.647882 -1.528757 1.528748 -5.376934 28.954514 5.530913 1.998925 -1.154081 1.154085 0.000006 0.000004 -0.000000 9.109290 -0.518005 2.259902 -0.356688 2.281927 -20.454463 0.193870 1.496205 -14.766575 0.001330 0.125178 -1.221565 0.000000 0.000001 -0.000001 9.533406 0.000002 -0.000003 0.785604 6.674209 -10.695652 0.161113 1.365969 -13.455100 0.053617 0.791771 -7.750332 -0.000001 -0.000003 -0.000000 9.104504 -0.043004 -1.865101 1.102265 9.142771 -9.053966 0.078041 0.954196 -9.353535 0.099407 1.075905 -10.559536 0.000001 -0.000001 0.000001 8.077803 -0.486901 -3.806303 1.143473 9.961069 -8.231108 0.047871 0.748297 -7.322271 0.005665 0.257922 -2.517792 -0.000000 -0.000000 0.000000 -8.207804 -6.751702 -1.599542 -84.955976 2.410168 -14.300368 80.808788 -1.788695 2.398683 -7.750176 -0.304275 0.159311 -1.076944 0.000001 0.000001 -0.000000 -0.000000 0.000000 8.207798 -6.751702 -1.599541 -82.671735 3.172522 6.494482 80.562163 -6.187435 -2.293992 -10.752612 -0.231740 -0.058119 2.186210 0.000002 0.000023 -0.000000 0.000000 0.000000 
